<?xml version="1.0" standalone="no"?>
<!DOCTYPE svg PUBLIC "-//W3C//DTD SVG 20010904//EN"
 "http://www.w3.org/TR/2001/REC-SVG-20010904/DTD/svg10.dtd">
<svg version="1.0" xmlns="http://www.w3.org/2000/svg"
 width="1000.000000pt" height="626.000000pt" viewBox="0 0 1000.000000 626.000000"
 preserveAspectRatio="xMidYMid meet">

<g transform="translate(0.000000,626.000000) scale(0.100000,-0.100000)"
fill="#000000" stroke="none">
<path d="M5027 6253 c-4 -3 -7 -39 -7 -78 0 -57 -4 -78 -20 -98 -14 -17 -20
-40 -20 -73 0 -40 4 -52 26 -69 19 -15 25 -27 20 -42 -6 -18 -18 -21 -109 -28
-56 -4 -218 -8 -360 -10 -283 -2 -287 -3 -293 -62 -2 -15 -8 -54 -13 -86 -5
-31 -7 -177 -5 -325 3 -147 7 -519 9 -827 2 -308 4 -579 4 -602 1 -52 20 -66
76 -53 23 5 59 5 89 -1 28 -5 109 -10 178 -12 105 -2 130 1 143 14 21 21 41
173 51 379 2 52 9 128 14 168 6 40 10 108 10 150 0 42 5 109 10 147 5 39 10
137 12 219 2 118 6 152 18 164 10 11 16 42 19 104 2 59 7 91 15 94 7 3 35 -4
63 -15 41 -16 78 -20 209 -22 147 -2 162 0 202 20 23 12 47 19 53 15 5 -3 8
-24 5 -47 -16 -134 -17 -147 -4 -147 34 -1 41 -18 44 -107 1 -48 7 -149 13
-223 5 -74 15 -209 22 -300 6 -91 16 -171 21 -177 6 -7 8 -19 5 -27 -11 -29
30 -310 54 -368 l11 -28 124 0 c87 0 125 4 131 13 4 6 6 152 4 322 -3 171 -3
337 -1 370 5 92 4 198 -2 470 -4 138 -6 264 -5 280 1 17 2 91 2 165 -1 108 -4
144 -19 180 -10 25 -18 61 -18 80 1 45 -11 58 -61 64 -53 7 -473 18 -589 17
l-88 -2 0 37 c0 35 1 36 28 29 44 -13 264 -17 275 -6 21 21 -2 58 -50 81 -54
25 -105 68 -97 82 3 5 3 20 0 33 -6 25 -93 75 -132 75 -18 0 -20 4 -16 26 6
33 -30 59 -51 37z m158 -133 c17 -19 17 -21 -10 -60 -19 -28 -26 -47 -21 -63
l6 -24 -36 16 c-34 16 -35 17 -30 63 3 26 10 57 16 68 14 26 52 26 75 0z m109
-132 c60 -29 67 -47 15 -38 -38 7 -79 34 -79 52 0 13 16 10 64 -14z m-276
-231 c2 -11 1 -34 -2 -53 -6 -28 -13 -35 -42 -43 -20 -5 -51 -22 -70 -36 -19
-14 -56 -36 -82 -47 -26 -11 -65 -33 -88 -49 -23 -15 -65 -39 -95 -54 -157
-74 -259 -150 -259 -192 0 -22 4 -24 38 -22 20 1 63 1 95 0 l57 -1 0 -70 c0
-55 -4 -73 -19 -87 -10 -10 -22 -29 -26 -42 -12 -38 -18 -166 -16 -297 2 -80
-2 -147 -12 -195 -9 -41 -18 -135 -21 -210 -12 -293 -46 -403 -110 -356 -17
13 -18 30 -16 258 4 478 1 644 -14 667 -3 4 -1 73 4 153 7 113 5 168 -7 254
-14 101 -14 122 2 260 10 83 22 155 27 162 13 17 39 18 363 18 274 0 290 -1
293 -18z m217 10 c17 0 53 1 80 2 28 1 129 0 225 -1 l175 -3 6 -60 c3 -33 11
-70 17 -82 12 -22 29 -403 25 -568 -2 -105 -2 -947 0 -1005 l2 -45 -60 0 -60
0 -16 85 c-9 47 -24 109 -33 139 -10 35 -16 92 -16 155 -1 56 -5 121 -10 146
-6 25 -14 104 -20 175 -5 72 -14 186 -20 255 -12 133 -13 150 -10 165 5 24 -1
35 -19 35 -17 0 -20 10 -26 75 -4 42 -4 79 0 83 3 4 57 9 118 12 96 4 112 8
115 22 2 12 -12 27 -45 47 -26 16 -60 39 -74 50 -14 11 -39 23 -55 27 -16 4
-49 20 -73 36 -25 15 -50 28 -57 28 -6 0 -17 6 -23 14 -7 8 -31 18 -54 21 -23
4 -67 20 -97 35 -30 15 -67 30 -82 34 -35 8 -54 38 -61 95 l-5 43 61 -8 c34
-4 76 -7 92 -7z m-160 -177 c3 -5 15 -10 26 -10 20 0 28 -3 96 -38 23 -12 49
-22 59 -22 9 0 29 -11 46 -25 16 -14 36 -25 43 -25 7 0 42 -13 77 -30 34 -16
57 -30 49 -30 -8 0 -38 12 -68 26 -58 29 -83 25 -43 -6 l25 -20 -27 0 c-17 0
-49 18 -90 51 -70 56 -91 49 -32 -12 21 -21 33 -39 27 -39 -6 0 -18 -3 -26 -6
-11 -4 -26 12 -51 50 -20 31 -40 56 -46 56 -14 0 -12 -31 5 -60 19 -34 19 -37
-10 -42 -31 -6 -41 6 -50 60 -9 58 -25 53 -25 -9 0 -43 -3 -50 -16 -45 -9 3
-25 6 -36 6 -15 0 -18 4 -13 18 29 76 7 98 -27 27 -12 -25 -28 -45 -35 -45
-22 0 -14 25 24 76 71 96 102 120 118 94z m-327 -377 l-3 -78 -41 -3 -41 -3
-7 64 c-9 87 -4 97 50 97 l45 0 -3 -77z"/>
<path d="M4987 5172 c-25 -5 -30 -33 -7 -39 16 -4 20 -14 20 -43 0 -72 -10
-100 -37 -100 -54 0 -37 -54 31 -94 51 -30 122 -37 112 -11 -9 24 73 20 104
-5 26 -20 84 -27 94 -11 8 12 -21 34 -34 26 -5 -3 -10 -2 -10 4 0 5 17 11 37
13 20 2 38 9 41 16 3 9 -24 13 -110 14 -148 3 -170 3 -188 -3 -11 -3 -14 2
-11 16 2 11 6 56 10 100 l6 80 111 3 c132 3 136 1 127 -80 l-6 -57 -39 -3
c-56 -4 -47 -23 14 -26 29 -2 57 -7 63 -13 15 -15 25 -11 25 11 0 11 -5 20
-11 20 -7 0 -9 26 -4 85 6 67 5 86 -6 89 -16 6 -308 12 -332 8z m103 -268 c0
-2 -9 -4 -20 -4 -11 0 -20 4 -20 9 0 5 9 7 20 4 11 -3 20 -7 20 -9z"/>
<path d="M5067 5114 c-10 -11 -8 -106 2 -100 13 9 23 74 13 91 -4 9 -11 12
-15 9z"/>
<path d="M5147 5073 c-5 -51 -2 -67 14 -58 11 8 12 75 0 93 -5 9 -10 -3 -14
-35z"/>
<path d="M5195 5111 c-8 -14 6 -91 16 -91 12 0 11 87 0 95 -5 3 -12 1 -16 -4z"/>
<path d="M5113 5060 c0 -30 2 -43 4 -27 2 15 2 39 0 55 -2 15 -4 2 -4 -28z"/>
<path d="M5240 5060 c0 -27 4 -50 9 -50 10 0 24 77 16 91 -14 22 -25 5 -25
-41z"/>
<path d="M5148 4683 c-1 -4 -2 -28 -2 -52 -1 -55 -17 -66 -80 -57 -47 7 -48 8
-42 37 5 25 3 30 -12 27 -27 -5 -29 -58 -2 -78 13 -10 23 -31 27 -57 l5 -40
54 -2 c62 -1 58 -8 72 109 5 47 11 91 13 99 2 8 -4 17 -13 19 -10 2 -19 0 -20
-5z"/>
<path d="M5305 4579 c-5 -8 -24 -9 -60 -5 -53 6 -53 6 -59 -25 -3 -17 -6 -42
-6 -56 0 -23 3 -24 48 -21 l47 3 3 43 c2 28 8 42 17 42 15 0 30 18 22 26 -3 3
-8 0 -12 -7z"/>
<path d="M4975 4450 c-12 -19 7 -32 37 -26 l30 6 -3 -63 -4 -62 45 0 45 0 -3
-38 c-3 -40 13 -55 44 -43 13 5 14 9 3 22 -7 9 -13 48 -14 98 -1 46 -5 89 -10
95 -5 9 -27 12 -65 9 -32 -1 -62 0 -66 5 -10 10 -32 9 -39 -3z"/>
<path d="M5208 4443 c-25 -4 -27 -7 -30 -74 l-3 -70 50 3 50 3 0 60 c0 60 0
60 28 58 18 -1 27 2 24 10 -4 12 -70 18 -119 10z"/>
<path d="M5200 3382 c-34 -11 -70 -45 -70 -63 0 -12 61 -84 153 -181 219 -231
297 -319 311 -353 10 -23 11 -95 7 -315 -8 -324 -13 -348 -75 -374 -39 -16
-50 -51 -18 -60 9 -3 72 -4 140 -3 94 2 125 6 132 17 14 23 -5 45 -50 59 -63
19 -70 45 -69 253 1 95 4 211 7 258 9 108 21 112 90 33 234 -268 439 -497 513
-575 61 -64 93 -66 118 -5 22 50 41 361 41 648 0 163 2 178 21 203 13 17 30
26 49 26 15 0 44 7 63 15 47 19 176 19 250 0 126 -33 214 -97 265 -193 81
-151 83 -336 5 -469 -35 -60 -131 -145 -204 -182 -75 -37 -132 -40 -237 -11
-85 24 -111 25 -118 6 -7 -17 20 -72 39 -79 36 -14 150 -18 226 -7 152 21 250
72 333 174 126 156 173 334 134 509 -30 134 -104 219 -244 277 -135 57 -153
59 -469 51 -158 -3 -294 -10 -300 -14 -26 -16 -13 -45 33 -72 34 -20 51 -39
66 -73 19 -43 20 -58 14 -241 -12 -322 -19 -392 -38 -405 -22 -14 -26 -10
-237 227 -97 109 -228 256 -291 327 -143 160 -534 571 -558 586 -9 7 -24 9
-32 6z"/>
<path d="M7582 3083 c-30 -15 -72 -57 -72 -73 0 -3 16 -25 36 -48 32 -38 34
-45 26 -74 -14 -47 -132 -298 -255 -545 -84 -166 -114 -217 -142 -238 -71 -55
-36 -82 96 -75 87 5 94 7 97 27 2 16 -5 26 -29 38 -28 15 -31 20 -26 52 8 44
74 187 98 209 15 13 46 15 228 12 171 -2 213 -6 225 -18 7 -8 54 -121 104
-250 49 -129 104 -264 121 -300 37 -79 38 -90 6 -120 -28 -27 -32 -55 -9 -64
30 -12 239 -7 252 6 22 22 13 43 -38 93 -54 53 -82 110 -212 434 -56 141 -203
447 -431 900 -12 25 -26 46 -32 48 -5 1 -25 -5 -43 -14z m86 -325 c31 -46 83
-146 126 -240 19 -43 22 -59 13 -65 -18 -11 -346 -13 -353 -1 -3 5 15 53 41
106 27 53 59 122 72 152 25 56 49 90 64 90 4 0 21 -19 37 -42z"/>
<path d="M3945 3055 c-171 -37 -276 -118 -350 -269 -49 -101 -62 -186 -48
-337 l11 -121 57 -84 c82 -120 168 -181 311 -218 97 -25 185 -21 284 15 67 23
95 29 131 24 60 -8 71 6 77 100 6 101 -7 106 -90 31 -34 -32 -92 -71 -128 -89
-129 -64 -268 -36 -389 77 -96 91 -139 224 -128 401 12 194 102 320 276 386
91 35 125 35 224 -1 54 -20 109 -49 144 -76 76 -59 89 -58 97 9 9 80 7 125 -6
134 -7 4 -47 6 -88 5 -46 -2 -98 3 -135 12 -71 19 -167 19 -250 1z"/>
<path d="M1905 3033 c-114 -5 -132 -27 -70 -89 34 -34 35 -37 37 -122 1 -48 2
-121 3 -162 1 -41 1 -131 1 -200 -1 -69 1 -253 2 -410 4 -304 2 -323 -45 -372
-13 -14 -23 -34 -21 -45 3 -16 15 -18 133 -18 150 0 159 6 101 70 -37 40 -51
89 -49 175 4 184 2 422 -3 506 -9 143 -26 135 308 139 328 3 307 13 301 -148
-5 -147 -17 -210 -48 -251 -31 -41 -32 -64 -2 -71 12 -3 72 -5 132 -3 l110 3
3 26 c2 19 -4 31 -22 43 -45 29 -56 65 -56 183 1 60 -2 171 -5 248 -4 77 -4
191 0 254 7 111 8 114 41 151 42 46 44 77 7 91 -36 14 -234 3 -245 -14 -12
-19 -10 -23 31 -71 l39 -45 7 -141 c6 -114 5 -145 -6 -155 -11 -11 -78 -14
-296 -17 -155 -2 -285 0 -289 4 -10 11 -14 246 -4 290 4 21 20 51 34 68 14 18
26 40 26 50 0 22 -29 41 -57 38 -10 -1 -54 -4 -98 -5z"/>
<path d="M3061 3014 c-38 -31 -38 -44 -6 -83 l26 -30 -50 -113 c-96 -220 -209
-446 -231 -461 -14 -10 -21 -23 -18 -39 3 -22 7 -23 83 -23 75 0 80 1 83 22 2
14 -4 26 -17 33 -28 15 -26 31 11 112 l31 69 151 -3 150 -3 33 -65 c36 -74 39
-92 18 -110 -9 -7 -15 -23 -13 -34 3 -19 10 -21 91 -24 126 -4 150 23 81 89
-35 32 -143 242 -289 559 -27 58 -53 111 -58 118 -15 19 -43 14 -76 -14z m119
-301 c18 -37 40 -81 48 -96 8 -16 11 -31 7 -35 -8 -9 -225 -12 -225 -3 0 3 23
56 52 118 60 130 61 130 118 16z"/>
<path d="M4893 3024 c-3 -9 5 -26 21 -43 39 -41 47 -112 41 -361 l-6 -215 -34
-33 c-61 -58 -50 -62 187 -62 251 0 268 6 282 92 8 47 -1 68 -28 68 -16 0 -29
-12 -45 -41 -26 -45 -53 -59 -114 -58 -60 0 -110 20 -124 48 -15 30 -28 162
-19 196 6 23 10 25 68 25 54 0 66 -4 90 -27 43 -41 62 -24 66 56 4 79 -17 111
-50 78 -26 -27 -58 -37 -112 -37 -31 0 -56 1 -57 3 -7 18 -6 223 1 242 9 23
14 25 75 25 86 0 132 -19 150 -64 20 -47 35 -54 58 -25 15 18 18 34 14 68 -9
78 -17 81 -253 81 -176 0 -205 -2 -211 -16z"/>
<path d="M4517 3023 c-17 -16 -6 -54 18 -65 13 -6 29 -25 35 -43 6 -20 11
-161 11 -366 1 -351 -4 -405 -42 -437 -28 -23 -40 -48 -33 -66 5 -13 26 -16
126 -16 161 0 194 20 123 74 -54 41 -57 66 -53 458 l3 350 38 32 c38 32 46 53
25 74 -13 13 -239 18 -251 5z"/>
<path d="M3095 2151 l-180 -6 -3 -36 c-4 -53 15 -65 86 -52 35 7 141 9 270 5
l213 -5 -3 49 -3 49 -100 1 c-55 0 -181 -2 -280 -5z"/>
<path d="M5068 2153 l-148 -4 -6 -27 c-3 -15 -8 -34 -10 -42 -4 -14 25 -16
243 -15 l248 0 3 24 c2 12 1 34 -2 47 -6 23 -9 24 -94 22 -48 -1 -153 -4 -234
-5z"/>
<path d="M918 970 c-65 -136 -86 -172 -105 -176 -13 -4 -23 -10 -23 -15 0 -12
127 -11 135 1 3 6 -1 10 -9 10 -20 0 -20 18 -1 64 l15 36 64 0 63 0 17 -38 c9
-21 18 -47 20 -57 2 -17 12 -20 74 -23 45 -2 72 1 72 8 0 5 -8 10 -18 10 -30
0 -47 26 -127 193 -41 86 -80 157 -86 157 -5 0 -47 -77 -91 -170z m121 -42 c1
-5 -19 -8 -44 -8 -25 0 -45 3 -45 6 0 3 10 28 22 57 l22 51 22 -50 c13 -27 23
-52 23 -56z"/>
<path d="M1426 1129 c-95 -23 -150 -88 -150 -174 0 -66 26 -111 89 -150 44
-27 57 -30 155 -33 103 -4 108 -3 124 19 15 22 22 69 11 69 -3 0 -16 -12 -29
-26 -49 -58 -185 -36 -238 38 -28 40 -35 113 -14 161 36 87 207 104 255 26 10
-16 21 -26 24 -22 11 10 8 81 -3 88 -18 11 -184 15 -224 4z"/>
<path d="M2766 1129 c-95 -23 -150 -88 -150 -174 0 -66 26 -111 89 -150 44
-27 57 -30 155 -33 103 -4 108 -3 124 19 15 22 22 69 11 69 -3 0 -16 -12 -29
-26 -49 -58 -185 -36 -238 38 -28 40 -35 113 -14 161 36 87 207 104 255 26 10
-16 21 -26 24 -22 11 10 8 81 -3 88 -18 11 -184 15 -224 4z"/>
<path d="M4903 1129 c-57 -17 -87 -74 -63 -120 9 -16 5 -25 -24 -52 -19 -18
-38 -46 -42 -61 -10 -41 18 -94 61 -112 47 -19 146 -18 190 3 31 15 39 15 58
4 28 -18 157 -28 157 -12 0 6 -6 11 -13 11 -7 0 -36 12 -65 26 l-52 26 25 42
c14 24 25 52 25 64 0 20 -5 22 -52 21 -46 0 -50 -2 -30 -11 25 -12 29 -45 9
-71 -11 -16 -19 -12 -84 43 -80 68 -103 98 -103 135 0 57 92 58 119 0 13 -27
15 -28 22 -10 4 11 8 32 8 46 1 22 -5 28 -30 33 -41 8 -76 6 -116 -5z m90
-276 c15 -11 27 -23 27 -26 0 -3 -16 -11 -35 -17 -89 -29 -167 51 -126 129
l12 22 47 -43 c26 -24 59 -53 75 -65z"/>
<path d="M6521 1124 c-44 -19 -60 -41 -61 -83 0 -35 26 -66 118 -139 23 -18
42 -41 42 -51 0 -27 -33 -51 -69 -51 -43 0 -67 14 -75 45 -10 40 -26 29 -26
-19 0 -52 7 -56 91 -56 98 0 139 32 139 108 0 42 -7 50 -119 140 -47 38 -51
54 -19 76 35 24 67 19 99 -15 l29 -31 0 40 c0 33 -4 41 -22 46 -38 10 -91 6
-127 -10z"/>
<path d="M8247 1058 c-4 -46 -7 -123 -7 -171 0 -80 -2 -89 -20 -94 -11 -3 -20
-9 -20 -14 0 -12 137 -11 145 1 3 6 -3 10 -14 10 -32 0 -41 31 -41 134 l0 96
145 -125 c80 -69 152 -125 160 -125 13 0 15 25 15 165 l0 164 28 15 c26 15 24
15 -50 16 -82 0 -94 -4 -54 -20 23 -8 24 -14 28 -117 3 -59 3 -110 2 -111 -1
-2 -69 55 -151 127 -81 72 -151 131 -154 131 -3 0 -9 -37 -12 -82z"/>
<path d="M8938 1130 c-128 -33 -186 -158 -123 -266 38 -64 95 -88 221 -92 116
-4 134 5 134 66 l0 36 -27 -32 c-72 -85 -247 -24 -269 93 -14 76 35 154 107
170 68 15 169 -21 169 -61 0 -8 5 -14 10 -14 13 0 13 87 0 95 -18 11 -184 15
-222 5z"/>
<path d="M9445 1130 c-93 -4 -122 -7 -102 -14 l27 -8 0 -155 c0 -146 -1 -155
-20 -160 -52 -14 -8 -23 109 -23 139 0 141 1 141 56 0 29 -16 32 -23 5 -6 -24
-61 -36 -100 -22 -26 10 -27 14 -27 76 l0 65 44 0 c34 0 47 -5 59 -22 15 -22
16 -22 17 -3 0 11 3 30 6 41 6 21 3 22 -60 17 l-66 -6 0 62 0 61 39 0 c49 0
71 -8 71 -26 0 -8 4 -14 9 -14 10 0 21 70 12 73 -3 1 -64 0 -136 -3z"/>
<path d="M9840 1129 c-44 -18 -60 -40 -60 -83 0 -49 15 -69 93 -125 47 -34 57
-47 57 -71 0 -34 -23 -50 -73 -50 -36 0 -67 25 -67 53 0 31 -19 17 -26 -18
-10 -57 6 -68 99 -63 74 3 80 5 108 36 53 59 33 116 -66 187 -56 40 -66 51
-63 73 6 51 97 56 120 7 14 -32 28 -22 28 19 0 26 -5 35 -22 40 -34 9 -100 6
-128 -5z"/>
<path d="M22 1117 c31 -12 38 -38 38 -147 0 -117 -10 -172 -31 -177 -44 -12
-1 -23 86 -23 143 0 205 33 205 110 0 32 -38 81 -70 92 -13 4 -13 8 1 24 22
25 32 60 24 84 -12 38 -56 50 -172 49 -87 -1 -103 -3 -81 -12z m170 -34 c37
-33 11 -103 -39 -103 -22 0 -23 4 -23 60 0 55 2 60 22 60 12 0 30 -7 40 -17z
m11 -145 c10 -5 25 -25 33 -43 26 -63 -14 -108 -81 -91 -24 6 -25 10 -25 81
l0 75 28 -6 c15 -4 35 -11 45 -16z"/>
<path d="M433 1117 l27 -11 0 -153 c0 -150 -1 -154 -22 -162 -41 -16 1 -22
128 -19 l119 3 3 40 c2 40 2 40 -15 18 -22 -28 -69 -38 -105 -24 -27 10 -28
14 -28 76 l0 65 45 0 c36 0 47 -4 56 -22 12 -22 12 -22 20 -3 4 11 8 29 8 40
1 19 -4 21 -64 17 l-65 -4 0 61 0 61 45 0 c33 0 50 -6 65 -22 14 -15 20 -17
20 -7 0 8 3 24 6 37 l6 22 -138 -1 c-111 -1 -133 -3 -111 -12z"/>
<path d="M1833 1114 l27 -15 0 -139 c0 -146 -4 -170 -26 -170 -8 0 -14 -4 -14
-10 0 -6 35 -10 85 -10 47 0 85 4 85 9 0 5 -10 11 -22 13 -26 4 -36 31 -37
106 l-1 52 105 0 105 0 0 -76 c0 -67 -2 -76 -20 -81 -46 -12 -15 -23 65 -23
47 0 85 4 85 9 0 5 -10 11 -22 13 -23 3 -23 6 -26 159 -2 153 -2 156 20 167
19 8 5 11 -67 10 -75 0 -85 -2 -62 -11 25 -10 27 -14 27 -74 l0 -64 -102 3
-103 3 -3 39 c-5 55 4 81 30 94 19 9 5 11 -67 11 -85 0 -89 -1 -62 -15z"/>
<path d="M3173 1114 l27 -15 0 -139 c0 -146 -4 -170 -26 -170 -8 0 -14 -4 -14
-10 0 -6 52 -10 135 -10 l134 0 7 35 c8 46 0 54 -24 25 -15 -18 -29 -23 -66
-23 -26 0 -52 5 -59 12 -13 13 -23 201 -13 254 4 21 15 38 29 45 17 8 4 11
-68 11 -85 0 -89 -1 -62 -15z"/>
<path d="M3552 1117 c26 -10 26 -11 30 -136 4 -141 13 -167 73 -195 45 -22
150 -21 195 2 57 29 72 67 78 202 4 108 7 119 26 128 16 8 3 11 -59 11 -77 0
-79 0 -52 -15 l29 -15 -4 -126 c-3 -123 -3 -125 -31 -149 -49 -42 -134 -29
-162 25 -21 42 -22 261 -1 261 8 0 18 5 21 10 4 6 -25 10 -82 9 -72 -1 -83 -3
-61 -12z"/>
<path d="M4133 1115 l27 -16 0 -139 c0 -146 -4 -170 -26 -170 -8 0 -14 -4 -14
-10 0 -13 174 -13 222 0 78 22 106 115 48 163 -16 14 -35 27 -42 29 -9 3 -6
13 10 33 28 35 28 76 1 101 -18 16 -39 19 -138 22 -109 2 -114 1 -88 -13z
m154 -23 c19 -12 31 -55 22 -79 -8 -23 -50 -40 -68 -28 -6 3 -11 31 -11 61 0
49 2 54 23 54 12 0 27 -4 34 -8z m30 -165 c13 -11 26 -36 29 -55 6 -29 3 -39
-16 -54 -25 -21 -70 -24 -88 -6 -12 12 -17 130 -6 141 11 11 57 -4 81 -26z"/>
<path d="M5520 1118 c14 -7 28 -17 32 -23 9 -12 10 -215 2 -267 -5 -29 -11
-38 -26 -38 -11 0 -16 -4 -13 -10 8 -13 165 -13 165 -1 0 5 -10 11 -22 13 -21
3 -23 9 -26 66 -3 60 -2 62 21 62 17 0 40 -18 76 -60 62 -71 94 -90 155 -90
52 0 69 15 26 24 -31 6 -107 69 -141 118 l-21 28 31 36 c38 43 40 82 7 121
-24 28 -25 28 -158 30 -109 2 -129 0 -108 -9z m191 -37 c18 -14 24 -29 24 -59
0 -52 -18 -72 -66 -72 l-39 0 0 75 0 75 29 0 c16 0 39 -9 52 -19z"/>
<path d="M6020 1117 c14 -6 28 -16 32 -22 9 -12 10 -230 2 -274 -5 -23 -12
-31 -27 -31 -15 0 -18 -3 -11 -10 7 -7 59 -10 135 -8 l124 3 3 40 c2 40 2 40
-15 18 -22 -28 -69 -38 -106 -24 -27 11 -28 13 -25 73 l3 63 42 3 c32 2 44 -1
55 -17 18 -26 28 -17 28 24 l0 31 -66 -4 -65 -4 3 58 3 59 42 3 c32 2 46 -2
59 -17 22 -25 34 -18 34 20 l0 29 -137 -1 c-113 0 -133 -2 -113 -12z"/>
<path d="M6868 1118 c21 -11 22 -15 22 -165 0 -146 -1 -155 -20 -160 -42 -11
-5 -23 70 -23 76 0 120 15 63 22 l-28 3 -3 158 c-2 132 0 157 12 157 8 0 18 5
21 10 4 6 -24 10 -77 9 -67 0 -79 -2 -60 -11z"/>
<path d="M7203 1114 l27 -15 0 -139 c0 -146 -4 -170 -26 -170 -8 0 -14 -5 -14
-11 0 -7 45 -10 148 -7 135 3 151 5 192 28 108 61 132 188 51 269 -50 50 -98
61 -268 61 -128 -1 -136 -2 -110 -16z m273 -44 c66 -41 91 -141 53 -211 -16
-30 -83 -59 -138 -59 -84 0 -81 -7 -81 157 l0 146 64 -5 c43 -4 77 -13 102
-28z"/>
<path d="M7793 1117 l27 -11 0 -154 c0 -145 -1 -154 -20 -159 -52 -14 -8 -23
109 -23 140 0 141 1 141 58 l0 27 -18 -22 c-21 -28 -67 -38 -104 -24 -27 10
-28 14 -28 76 l0 65 45 0 c36 0 47 -4 57 -22 l12 -23 7 25 c16 55 14 56 -56
52 l-65 -4 0 61 0 61 39 0 c49 0 71 -8 71 -26 0 -8 5 -14 10 -14 6 0 10 9 10
19 0 11 3 26 6 35 5 14 -10 16 -132 15 -111 -1 -133 -3 -111 -12z"/>
<path d="M2452 300 c-70 -17 -122 -99 -108 -172 14 -77 74 -128 151 -128 42 0
115 36 115 57 0 22 -29 27 -50 8 -10 -9 -37 -19 -59 -22 -36 -5 -44 -2 -76 30
-40 40 -46 86 -20 137 27 52 84 65 150 33 28 -13 38 -14 48 -4 9 10 6 17 -16
37 -15 13 -36 24 -45 24 -9 0 -26 2 -37 4 -11 3 -35 1 -53 -4z"/>
<path d="M3745 301 c-96 -24 -143 -131 -97 -221 69 -138 282 -87 282 68 0 105
-87 177 -185 153z m98 -61 c59 -47 56 -143 -7 -181 -69 -42 -136 -10 -161 78
-8 29 17 86 46 107 32 22 91 20 122 -4z"/>
<path d="M6755 295 c-22 -8 -41 -15 -42 -15 -1 0 -14 -17 -28 -37 -67 -100 2
-243 118 -243 43 0 96 19 115 42 10 12 10 18 -2 27 -11 9 -21 7 -48 -9 -18
-11 -43 -20 -56 -20 -65 0 -120 69 -107 136 13 72 110 109 167 64 25 -19 26
-19 43 0 16 18 16 20 -16 39 -19 12 -41 21 -49 21 -8 0 -24 2 -35 5 -11 3 -38
-2 -60 -10z"/>
<path d="M2819 158 c-35 -77 -65 -145 -67 -150 -2 -4 7 -8 21 -8 18 0 28 9 42
40 l18 40 72 0 72 0 18 -40 c14 -31 24 -40 43 -40 15 0 22 5 19 13 -3 6 -33
74 -67 150 -84 184 -85 184 -171 -5z m115 -36 c-13 -2 -37 -2 -52 0 l-29 3 25
59 26 60 27 -60 27 -59 -24 -3z"/>
<path d="M3222 153 l3 -148 67 -3 c92 -4 144 11 163 48 21 40 19 57 -8 84 -20
20 -22 26 -10 42 21 28 16 72 -12 99 -22 23 -32 25 -115 25 l-91 0 3 -147z
m172 88 c33 -37 -7 -71 -85 -71 l-39 0 0 45 0 45 53 0 c40 0 58 -5 71 -19z
m16 -126 c31 -38 -14 -75 -92 -75 l-48 0 0 45 0 45 64 0 c43 0 67 -5 76 -15z"/>
<path d="M4375 275 c-51 -50 -18 -127 61 -140 46 -9 84 -30 84 -49 0 -20 -34
-46 -61 -46 -13 0 -42 9 -63 21 -31 17 -40 18 -47 7 -13 -19 -7 -29 31 -50 42
-22 101 -23 139 -3 33 16 41 33 41 81 0 39 -21 56 -97 79 -62 18 -79 36 -63
64 13 26 75 29 108 5 13 -9 24 -14 25 -13 2 2 8 12 16 21 11 14 8 19 -18 32
-16 9 -53 16 -81 16 -41 0 -56 -5 -75 -25z"/>
<path d="M4816 248 c-13 -29 -42 -93 -65 -142 -22 -49 -41 -93 -41 -97 0 -5 9
-9 20 -9 13 0 27 14 40 40 l20 40 70 0 70 0 20 -40 c13 -26 27 -40 40 -40 11
0 20 6 19 13 0 6 -28 73 -62 147 -51 109 -67 136 -85 138 -19 3 -27 -6 -46
-50z m73 -67 c11 -27 21 -52 21 -55 0 -3 -23 -6 -51 -6 -37 0 -50 3 -46 13 31
77 40 97 47 97 4 0 17 -22 29 -49z"/>
<path d="M5180 150 c0 -143 1 -150 20 -150 19 0 20 7 20 106 0 61 4 104 9 102
5 -1 46 -49 91 -105 44 -57 87 -103 95 -103 13 0 15 25 15 150 0 142 -1 150
-20 150 -18 0 -20 -8 -22 -105 l-3 -105 -82 105 c-56 71 -89 105 -103 105 -19
0 -20 -6 -20 -150z"/>
<path d="M5870 150 l0 -150 100 0 100 0 0 25 c0 25 -1 25 -80 25 l-80 0 0 125
c0 118 -1 125 -20 125 -19 0 -20 -7 -20 -150z"/>
<path d="M6232 188 c4 -123 15 -155 64 -176 35 -16 89 -15 124 3 48 25 60 61
60 180 0 98 -1 105 -20 105 -19 0 -20 -7 -20 -95 0 -100 -13 -147 -45 -159
-33 -12 -66 -5 -90 19 -23 23 -25 31 -25 130 l0 105 -26 0 -26 0 4 -112z"/>
<path d="M7176 248 c-13 -29 -42 -93 -65 -142 -22 -49 -41 -93 -41 -97 0 -5 9
-9 20 -9 13 0 27 14 40 40 l20 40 70 0 70 0 20 -40 c13 -26 27 -40 40 -40 11
0 20 4 20 9 0 4 -28 71 -63 147 -51 112 -68 140 -85 142 -19 3 -27 -6 -46 -50z
m69 -60 c9 -24 19 -49 22 -55 4 -10 -9 -13 -46 -13 -28 0 -51 3 -51 6 0 14 43
104 50 104 4 0 16 -19 25 -42z"/>
<path d="M7552 277 c-14 -15 -22 -36 -22 -59 0 -45 29 -71 100 -88 62 -15 80
-40 50 -70 -26 -26 -66 -25 -108 0 -27 16 -37 18 -48 9 -19 -15 -2 -37 43 -56
83 -34 173 3 173 72 0 42 -29 72 -85 86 -22 5 -50 14 -62 19 -25 10 -30 39
-11 58 17 17 79 15 105 -3 19 -13 22 -13 34 1 23 28 -21 54 -90 54 -47 0 -61
-4 -79 -23z"/>
</g>
</svg>
